<svg width="56" height="57" viewBox="0 0 56 57" fill="none" xmlns="http://www.w3.org/2000/svg">
<g clip-path="url(#clip0_37_59)">
<path d="M27.9903 56.2428C43.2666 56.2428 55.6505 43.8589 55.6505 28.5826C55.6505 13.3063 43.2666 0.922363 27.9903 0.922363C12.714 0.922363 0.330078 13.3063 0.330078 28.5826C0.330078 43.8589 12.714 56.2428 27.9903 56.2428Z" fill="#8AA29D"/>
<path d="M43.2799 11.2024H12.7012V45.9193H43.2799V11.2024Z" fill="white"/>
<path d="M12.7012 16.8215H43.2799" stroke="#84DBFF" stroke-width="0.040837" stroke-miterlimit="10"/>
<path d="M12.7012 17.3879H43.2799" stroke="#84DBFF" stroke-width="0.040837" stroke-miterlimit="10"/>
<path d="M12.7012 20.0012H43.2799" stroke="#E6E9EE" stroke-width="0.040837" stroke-miterlimit="10"/>
<path d="M12.7012 22.6147H43.2799" stroke="#E6E9EE" stroke-width="0.040837" stroke-miterlimit="10"/>
<path d="M12.7012 25.2283H43.2799" stroke="#E6E9EE" stroke-width="0.040837" stroke-miterlimit="10"/>
<path d="M12.7012 27.842H43.2799" stroke="#E6E9EE" stroke-width="0.040837" stroke-miterlimit="10"/>
<path d="M12.7012 30.4553H43.2799" stroke="#E6E9EE" stroke-width="0.040837" stroke-miterlimit="10"/>
<path d="M12.7012 33.0691H43.2799" stroke="#E6E9EE" stroke-width="0.040837" stroke-miterlimit="10"/>
<path d="M12.7012 35.6826H43.2799" stroke="#E6E9EE" stroke-width="0.040837" stroke-miterlimit="10"/>
<path d="M12.7012 38.2961H43.2799" stroke="#E6E9EE" stroke-width="0.040837" stroke-miterlimit="10"/>
<path d="M12.7012 40.9097H43.2799" stroke="#E6E9EE" stroke-width="0.040837" stroke-miterlimit="10"/>
<path d="M12.7012 43.4797H43.2799" stroke="#E6E9EE" stroke-width="0.040837" stroke-miterlimit="10"/>
<path d="M29.1661 35.3342L27.9465 34.2888L25.42 35.552L25.5071 37.1201L24.0697 37.8171L23.7212 30.4991L25.028 29.8457L30.6036 34.6372L29.1661 35.3342ZM25.2458 31.9801L25.3329 34.1145L26.8575 33.374L25.2458 31.9801Z" fill="#FF7058"/>
<path d="M32.0407 32.7641L31.3002 31.196L29.7756 31.9365L29.2529 30.891L30.7775 30.1505L29.9934 28.5824L31.1695 28.0161L31.9101 29.5843L33.4346 28.8437L33.9573 29.8892L32.4328 30.6297L33.1733 32.1978L32.0407 32.7641Z" fill="#FF7058"/>
<path d="M38.3138 27.145C38.3138 27.145 38.4009 27.3192 38.488 27.5806C38.5751 27.7113 38.6187 27.9291 38.6623 28.1469C38.7494 28.3647 38.7494 28.626 38.7929 28.9309C38.8365 29.5408 38.7494 30.2813 38.488 31.0653C38.2267 31.8494 37.7911 32.7206 37.1812 33.5482C35.9616 35.2035 34.1321 36.8587 31.867 38.0784C31.3007 38.3833 30.6909 38.6447 30.1246 38.9496C29.5148 39.211 28.8614 39.4288 28.208 39.6466C26.9012 40.0386 25.5509 40.2564 24.157 40.2999C22.7631 40.2999 21.3692 40.1257 20.0624 39.5159C18.7992 38.9496 17.7537 37.7735 17.3617 36.5103C17.0132 35.1164 17.2746 33.8531 17.7537 32.7206C18.2329 31.6316 18.9298 30.7169 19.6268 29.9328C20.3237 29.1487 21.0207 28.5389 21.7176 28.0597C22.0661 27.7984 22.371 27.5806 22.676 27.4064C22.9809 27.1886 23.2422 27.0143 23.5036 26.8836C24.0263 26.5787 24.4183 26.3609 24.7232 26.2302C25.0282 26.0996 25.1588 26.0125 25.1588 26.0125C25.1588 26.0125 25.0282 26.0996 24.7232 26.2738C24.4619 26.448 24.0263 26.6658 23.5471 26.9708C23.2858 27.145 23.0244 27.3192 22.7631 27.537C22.4582 27.7548 22.1532 27.9726 21.8483 28.234C21.1949 28.7567 20.5415 29.4101 19.8882 30.1506C19.2348 30.8911 18.6249 31.8059 18.1893 32.8513C17.7537 33.8967 17.5795 35.1164 17.8844 36.2489C18.2329 37.425 19.1041 38.3833 20.2802 38.906C21.4563 39.4723 22.7631 39.6466 24.0699 39.6466C25.3766 39.6466 26.727 39.4288 27.9902 39.0367C28.6436 38.8625 29.2534 38.6447 29.8197 38.4269C30.4295 38.1655 30.9958 37.9042 31.5621 37.5993C32.6511 36.9894 33.6965 36.3796 34.5677 35.6391C35.4389 34.8986 36.2229 34.1145 36.8328 33.3304C37.4426 32.5464 37.9218 31.7187 38.2267 30.9782C38.5316 30.2377 38.6623 29.4972 38.6623 28.9309C38.6623 28.626 38.6623 28.3647 38.6187 28.1469C38.5751 27.9291 38.5751 27.7113 38.488 27.5806C38.3573 27.2757 38.3138 27.145 38.3138 27.145Z" fill="#FF7058"/>
</g>
<defs>
<clipPath id="clip0_37_59">
<rect width="55.3205" height="55.3205" fill="white" transform="translate(0.330078 0.922363)"/>
</clipPath>
</defs>
</svg>
