<?xml version="1.0" encoding="iso-8859-1"?>
<!-- Uploaded to: SVG Repo, www.svgrepo.com, Generator: SVG Repo Mixer Tools -->
<svg fill="#000000" height="800px" width="800px" version="1.1" id="Capa_1" xmlns="http://www.w3.org/2000/svg" xmlns:xlink="http://www.w3.org/1999/xlink" 
	 viewBox="0 0 239.989 239.989" xml:space="preserve">
<path color-rendering="auto" image-rendering="auto" shape-rendering="auto" color-interpolation="sRGB" d="M120.1,0.001
	c-2.705-0.057-4.965,2.048-5.1,4.75l-1.27,26.644c-3.702,1.727-6.6,4.918-7.93,8.815c-10.489,1.04-21.808,5.677-34.889,10.037
	c-14.842,4.947-31.751,9.742-50.918,9.742c-6.573,0.093-6.573,9.907,0,10h15v13.486l-17.676,26.514H9.995c-2.761,0-5,2.239-5,5
	c0,12.496,6.678,24.062,17.5,30.31c10.822,6.248,24.178,6.248,35,0c10.822-6.248,17.5-17.814,17.5-30.31c0-2.761-2.239-5-5-5h-7.324
	L44.995,83.476V69.989h66.9l-6.668,140H89.995c-1.326,0-2.598,0.527-3.535,1.465l-20,20c-3.148,3.15-0.918,8.533,3.535,8.535h100
	c4.453,0,6.683-5.385,3.535-8.535l-20-20c-0.938-0.938-2.209-1.465-3.535-1.465h-15.232l-6.668-140h66.9v13.486l-17.676,26.514
	h-7.324c-2.761,0-5,2.239-5,5c0,12.496,6.678,24.062,17.5,30.31c10.822,6.248,24.178,6.248,35,0
	c10.822-6.248,17.5-17.814,17.5-30.31c0-2.761-2.239-5-5-5h-7.324l-17.676-26.514V69.989h15c6.573-0.093,6.573-9.907,0-10
	c-19.167,0-36.078-4.795-50.92-9.742c-13.081-4.36-24.396-8.997-34.885-10.037c-1.331-3.898-4.229-7.09-7.932-8.816l-1.27-26.643
	C124.858,2.13,122.724,0.057,120.1,0.001L120.1,0.001z M119.995,39.989c2.821,0,5,2.179,5,5c0,2.821-2.179,5-5,5s-5-2.179-5-5
	C114.995,42.169,117.174,39.989,119.995,39.989z M105.995,50.298c1.233,3.21,3.539,5.898,6.475,7.623l-0.1,2.068H73.258
	c0.261-0.087,0.557-0.169,0.816-0.256C86.975,55.433,97.89,51.405,105.995,50.298L105.995,50.298z M133.997,50.298
	c8.104,1.107,19.015,5.135,31.916,9.435c0.26,0.087,0.555,0.169,0.816,0.256H127.62l-0.1-2.066
	C130.457,56.198,132.763,53.509,133.997,50.298L133.997,50.298z M39.996,94.003l10.658,15.986H29.337L39.996,94.003z
	 M199.996,94.003l10.658,15.986h-21.316L199.996,94.003z M119.996,110.105l4.756,99.885h-9.512L119.996,110.105z M15.658,119.989
	h48.676c-1.421,6.92-5.579,13.037-11.838,16.65c-7.742,4.47-17.258,4.47-25,0C21.237,133.026,17.079,126.909,15.658,119.989z
	 M175.658,119.989h48.676c-1.421,6.92-5.579,13.037-11.838,16.65c-7.742,4.47-17.258,4.47-25,0
	C181.237,133.026,177.079,126.909,175.658,119.989L175.658,119.989z M92.066,219.989h55.859l10,10H82.066L92.066,219.989z"/>
</svg>