<svg width="56" height="57" viewBox="0 0 56 57" fill="none" xmlns="http://www.w3.org/2000/svg">
<g clip-path="url(#clip0_37_106)">
<path d="M28.1314 56.2428C43.4077 56.2428 55.7917 43.8589 55.7917 28.5826C55.7917 13.3063 43.4077 0.922363 28.1314 0.922363C12.8551 0.922363 0.471191 13.3063 0.471191 28.5826C0.471191 43.8589 12.8551 56.2428 28.1314 56.2428Z" fill="#8A98A2"/>
<path d="M41.0683 37.9043H19.942C17.6333 37.9043 15.7603 39.7774 15.7603 42.086C15.7603 44.3946 17.6333 46.2677 19.942 46.2677H41.0683V37.9043Z" fill="#E6E9EE"/>
<path d="M41.5474 11.4636V37.3815C41.5474 37.6864 41.3296 37.9042 41.0247 37.9042H19.942C17.5898 37.9042 15.6731 39.8644 15.7603 42.2601C15.8474 44.5252 17.764 46.3112 20.0291 46.3112H41.0247C41.3296 46.3112 41.5474 46.529 41.5474 46.8339C41.5474 47.1388 41.3296 47.3566 41.0247 47.3566H19.942C17.0671 47.3566 14.7148 45.0044 14.7148 42.1295V15.8196C14.7148 12.5091 17.372 9.85193 20.6825 9.85193H39.9357C40.8505 9.80837 41.5474 10.5489 41.5474 11.4636Z" fill="white"/>
<path d="M19.6806 46.2678C17.5898 46.0935 15.8474 44.3947 15.7603 42.2603C15.6731 39.9517 17.4155 38.0786 19.6806 37.9044V9.93921C16.8493 10.4184 14.7148 12.8577 14.7148 15.8197V42.0861C14.7148 44.8739 16.9364 47.1825 19.6806 47.3132V46.2678Z" fill="#324A5E"/>
<path d="M39.0213 14.3386H22.0767V15.3405H39.0213V14.3386Z" fill="#84DBFF"/>
<path d="M39.0213 16.9524H22.0767V17.9543H39.0213V16.9524Z" fill="#84DBFF"/>
<path d="M39.0213 19.522H22.0767V20.5238H39.0213V19.522Z" fill="#84DBFF"/>
<path d="M39.0213 22.1357H22.0767V23.1376H39.0213V22.1357Z" fill="#84DBFF"/>
<path d="M24.1675 42.6521V49.4038L26.781 48.0099L29.3946 49.4038V42.6521H24.1675Z" fill="#FF7058"/>
</g>
<defs>
<clipPath id="clip0_37_106">
<rect width="55.3205" height="55.3205" fill="white" transform="translate(0.471191 0.922363)"/>
</clipPath>
</defs>
</svg>
