<?xml version="1.0" encoding="utf-8"?><!-- Uploaded to: SVG Repo, www.svgrepo.com, Generator: SVG Repo Mixer Tools -->
<svg fill="#000000" width="800px" height="800px" viewBox="0 0 24 24" id="print-alt-6" data-name="Flat Line" xmlns="http://www.w3.org/2000/svg" class="icon flat-line"><path id="secondary" d="M17,6H7V4A1,1,0,0,1,8,3h8a1,1,0,0,1,1,1Zm1,8H6v7H18Z" style="fill: rgb(44, 169, 188); stroke-width: 2;"></path><path id="primary" d="M18,17h2a1,1,0,0,0,1-1V7a1,1,0,0,0-1-1H4A1,1,0,0,0,3,7v9a1,1,0,0,0,1,1H6" style="fill: none; stroke: rgb(0, 0, 0); stroke-linecap: round; stroke-linejoin: round; stroke-width: 2;"></path><path id="primary-2" data-name="primary" d="M17,6H7V4A1,1,0,0,1,8,3h8a1,1,0,0,1,1,1Zm1,8H6v7H18Zm-1-4H15" style="fill: none; stroke: rgb(0, 0, 0); stroke-linecap: round; stroke-linejoin: round; stroke-width: 2;"></path><line id="primary-upstroke" x1="6.95" y1="10" x2="7.05" y2="10" style="fill: none; stroke: rgb(0, 0, 0); stroke-linecap: round; stroke-linejoin: round; stroke-width: 2.5;"></line></svg>